<?xml version="1.0" encoding="utf-8"?>
<!-- Generator: Adobe Illustrator 16.0.0, SVG Export Plug-In . SVG Version: 6.00 Build 0)  -->
<!DOCTYPE svg PUBLIC "-//W3C//DTD SVG 1.1//EN" "http://www.w3.org/Graphics/SVG/1.1/DTD/svg11.dtd">
<svg version="1.1" id="Layer_1" xmlns="http://www.w3.org/2000/svg" xmlns:xlink="http://www.w3.org/1999/xlink" x="0px" y="0px"
	 width="24px" height="24px" viewBox="0 0 24 24" enable-background="new 0 0 24 24" xml:space="preserve">
<g>
	<path fill="#F7F7F7" d="M11.25,4.042c0.32-2.303,2.987-2.377,3.375,0C19.201,4.851,20,8.605,20,8.605s0,6.728,0,8.812
		c2,0.417,2.167,2.5,2.167,2.5h-18.5c0,0,0-2,2.05-2.593c0-1.828,0-8.349,0-8.349S6.186,4.826,11.25,4.042z"/>
	<path fill="#F7F7F7" d="M15.2,20.634c-0.297,0.494-0.567,1.704-2.283,1.704s-1.939-1.704-1.939-1.704H15.2z"/>
</g>
<path d="M8.286,21.152"/>
</svg>
