<?xml version="1.0" encoding="utf-8"?>
<!-- Generator: Adobe Illustrator 16.0.0, SVG Export Plug-In . SVG Version: 6.00 Build 0)  -->
<!DOCTYPE svg PUBLIC "-//W3C//DTD SVG 1.1//EN" "http://www.w3.org/Graphics/SVG/1.1/DTD/svg11.dtd">
<svg version="1.1" id="Layer_1" xmlns="http://www.w3.org/2000/svg" xmlns:xlink="http://www.w3.org/1999/xlink" x="0px" y="0px"
	 width="24px" height="24px" viewBox="0 0 24 24" enable-background="new 0 0 24 24" xml:space="preserve">
<path fill="#3D5570" d="M8.19,22.935c-2.365,0-4.282-1.832-4.282-4.092V4.895c0-2.259,1.917-4.091,4.282-4.091h7.661
	c2.362,0,4.279,1.832,4.279,4.091v13.948c0,2.26-1.917,4.092-4.279,4.092H8.19z"/>
<rect x="5.732" y="5.464" fill="#FFFFFF" width="12.23" height="3.763"/>
<g>
	<rect x="6.533" y="10.524" fill="#FFFFFF" width="2.729" height="2.729"/>
	<rect x="6.533" y="14.476" fill="#FFFFFF" width="2.728" height="2.729"/>
	<rect x="6.533" y="18.228" fill="#FFFFFF" width="2.728" height="2.729"/>
</g>
<g>
	<rect x="10.636" y="10.524" fill="#FFFFFF" width="2.729" height="2.729"/>
	<rect x="10.636" y="14.476" fill="#FFFFFF" width="2.728" height="2.729"/>
	<rect x="10.636" y="18.228" fill="#FFFFFF" width="2.728" height="2.729"/>
</g>
<rect x="14.382" y="10.524" fill="#FFFFFF" width="2.729" height="2.729"/>
<rect x="14.382" y="14.476" fill="#FFFFFF" width="2.728" height="2.729"/>
<rect x="14.382" y="16.359" fill="#FFFFFF" width="2.728" height="4.597"/>
</svg>
