<?xml version="1.0" encoding="utf-8"?>
<!-- Generator: Adobe Illustrator 16.0.0, SVG Export Plug-In . SVG Version: 6.00 Build 0)  -->
<!DOCTYPE svg PUBLIC "-//W3C//DTD SVG 1.1//EN" "http://www.w3.org/Graphics/SVG/1.1/DTD/svg11.dtd">
<svg version="1.1" id="Layer_1" xmlns="http://www.w3.org/2000/svg" xmlns:xlink="http://www.w3.org/1999/xlink" x="0px" y="0px"
	 width="24px" height="24px" viewBox="0 0 24 24" enable-background="new 0 0 24 24" xml:space="preserve">
<g>
	<path fill="#F7F7F7" d="M22.73,7.66c0,1.09-0.871,1.96-1.961,1.96c-1.08,0-1.961-0.87-1.961-1.96c0-0.2,0.03-0.38,0.08-0.56
		C17.971,6.24,16.24,5,13.689,4.73C13.35,5.31,12.721,5.7,12,5.7c-0.66,0-1.24-0.32-1.59-0.82c-2.28,0.4-3.96,1.35-5.12,2.15
		C5.36,7.23,5.4,7.44,5.4,7.66c0,1.09-0.88,1.96-1.96,1.96c-1.09,0-1.96-0.87-1.96-1.96c0-1.08,0.87-1.96,1.96-1.96
		c0.16,0,0.31,0.02,0.45,0.05c1.25-0.81,3.54-2.1,6.24-2.6c0.25-0.79,1-1.37,1.87-1.37c0.84,0,1.55,0.53,1.83,1.27
		c2.57,0.4,4.729,1.71,6.109,2.84c0.25-0.12,0.531-0.19,0.83-0.19C21.859,5.7,22.73,6.58,22.73,7.66z"/>
	<path fill="#F7F7F7" d="M12,7.019c-2.742,3.022-6.33,7.393-6.33,9.852c0,3.49,2.84,6.32,6.33,6.32s6.33-2.83,6.33-6.32
		C18.33,14.625,14.883,10.167,12,7.019z M12,18.83c-1.08,0-1.96-0.88-1.96-1.96c0-1.091,0.88-1.96,1.96-1.96s1.96,0.869,1.96,1.96
		C13.96,17.95,13.08,18.83,12,18.83z"/>
</g>
<path d="M-7.703,9.624"/>
</svg>
