<?xml version="1.0" encoding="utf-8"?>
<!-- Generator: Adobe Illustrator 16.0.0, SVG Export Plug-In . SVG Version: 6.00 Build 0)  -->
<!DOCTYPE svg PUBLIC "-//W3C//DTD SVG 1.1//EN" "http://www.w3.org/Graphics/SVG/1.1/DTD/svg11.dtd">
<svg version="1.1" id="Layer_1" xmlns="http://www.w3.org/2000/svg" xmlns:xlink="http://www.w3.org/1999/xlink" x="0px" y="0px"
	 width="24px" height="24px" viewBox="0 0 24 24" enable-background="new 0 0 24 24" xml:space="preserve">
<g>
	<path fill="#F7F7F7" d="M12.208,2.313l-1.421,9.664l-5.89-7.613c1.765-1.323,3.954-2.099,6.323-2.099
		C11.555,2.265,11.88,2.28,12.208,2.313z"/>
	<path fill="#F7F7F7" d="M23.684,12.573l-0.629-0.011H11.693l1.775-12C19.186,1.629,23.537,6.583,23.684,12.573z"/>
	<path fill="#F7F7F7" d="M21.782,13.545c-0.353,5.523-4.943,9.893-10.563,9.893c-5.849,0-10.586-4.737-10.586-10.586
		c0-3.121,1.348-5.931,3.504-7.858l5.856,7.571l0.596,0.769l0.164,0.213L21.782,13.545L21.782,13.545z"/>
</g>
</svg>
