<?xml version="1.0" encoding="utf-8"?>
<!-- Generator: Adobe Illustrator 16.0.0, SVG Export Plug-In . SVG Version: 6.00 Build 0)  -->
<!DOCTYPE svg PUBLIC "-//W3C//DTD SVG 1.1//EN" "http://www.w3.org/Graphics/SVG/1.1/DTD/svg11.dtd">
<svg version="1.1" id="Layer_1" xmlns="http://www.w3.org/2000/svg" xmlns:xlink="http://www.w3.org/1999/xlink" x="0px" y="0px"
	 width="24px" height="24px" viewBox="0 0 24 24" enable-background="new 0 0 24 24" xml:space="preserve">
<ellipse fill="#FFFFFF" cx="14.233" cy="5.633" rx="3.632" ry="1.091"/>
<g>
	<ellipse fill="#F7F7F7" cx="11.786" cy="6.211" rx="9.803" ry="3.211"/>
	<path fill="#F7F7F7" d="M21.59,7.059v4.83c0,1.771-4.39,3.21-9.8,3.21c-5.42,0-9.81-1.439-9.81-3.21v-4.83
		c0,1.78,4.39,3.221,9.81,3.221C17.2,10.28,21.59,8.839,21.59,7.059z"/>
	<path fill="#F7F7F7" d="M21.59,12.959v4.83c0,1.771-4.39,3.211-9.8,3.211c-5.42,0-9.81-1.439-9.81-3.211v-4.83
		c0,1.781,4.39,3.22,9.81,3.22C17.2,16.18,21.59,14.74,21.59,12.959z"/>
</g>
</svg>
