<?xml version="1.0" encoding="utf-8"?>
<!-- Generator: Adobe Illustrator 16.0.0, SVG Export Plug-In . SVG Version: 6.00 Build 0)  -->
<!DOCTYPE svg PUBLIC "-//W3C//DTD SVG 1.1//EN" "http://www.w3.org/Graphics/SVG/1.1/DTD/svg11.dtd">
<svg version="1.1" id="Layer_1" xmlns="http://www.w3.org/2000/svg" xmlns:xlink="http://www.w3.org/1999/xlink" x="0px" y="0px"
	 width="24px" height="24px" viewBox="0 0 24 24" enable-background="new 0 0 24 24" xml:space="preserve">
<g id="Layer_1_1_">
	<line fill="#F7F7F7" x1="14.531" y1="13.576" x2="14.631" y2="13.576"/>
	<g>
		<path fill="#F7F7F7" d="M20.34,12c0-0.44-0.04-0.87-0.1-1.3l2.71-2.6l-1.96-3.39L17.43,5.74c-0.709-0.6-1.529-1.08-2.42-1.41
			L14.12,0.7h-3.91l-0.9,3.64C8.61,4.6,7.95,4.96,7.36,5.39L3.58,4.3L1.62,7.68l2.59,2.49C4.07,10.76,4,11.37,4,12
			c0,0.641,0.07,1.27,0.22,1.87l-2.6,2.5l1.96,3.38l3.83-1.1c0.58,0.408,1.22,0.75,1.9,1.01l0.9,3.66h3.91l0.899-3.66
			c0.869-0.32,1.67-0.79,2.369-1.36l3.602,1.04l1.96-3.39l-2.72-2.61C20.3,12.9,20.34,12.46,20.34,12z M12.17,18.54
			c-3.61,0-6.54-2.931-6.54-6.54c0-3.61,2.93-6.54,6.54-6.54c3.609,0,6.54,2.93,6.54,6.54C18.71,15.609,15.779,18.54,12.17,18.54z"
			/>
	</g>
	<circle fill="#F7F7F7" cx="12.285" cy="12.01" r="3.516"/>
</g>
<g id="Layer_2">
</g>
</svg>
