<?xml version="1.0" encoding="utf-8"?>
<!-- Generator: Adobe Illustrator 16.0.0, SVG Export Plug-In . SVG Version: 6.00 Build 0)  -->
<!DOCTYPE svg PUBLIC "-//W3C//DTD SVG 1.1//EN" "http://www.w3.org/Graphics/SVG/1.1/DTD/svg11.dtd">
<svg version="1.1" id="Layer_1" xmlns="http://www.w3.org/2000/svg" xmlns:xlink="http://www.w3.org/1999/xlink" x="0px" y="0px"
	 width="24px" height="24px" viewBox="0 0 24 24" enable-background="new 0 0 24 24" xml:space="preserve">
<path fill="#F7F7F7" d="M12.607,18.018l9.895-5.912L20.99,10.93l-8.458,4.954l-2.667-0.923v-2.059L4.323,11.56v2.267l-2.118-0.63
	c0,0-1.092-1.511,0.461-3.61c2.057,0.462,10.011,2.561,10.011,2.561L22.9,6.439c0,0-4.952-0.882-12.616-2.225
	C5.312,6.103,1.491,8.16,1.491,8.16s-1.973,3.106-0.527,6.129l3.401,1.259l-0.042,4.031l2.374-1.177l3.126,2.394v-3.61l3.231,0.967"
	/>
</svg>
